<?xml version="1.0" standalone="no"?><!DOCTYPE svg PUBLIC "-//W3C//DTD SVG 1.1//EN" "http://www.w3.org/Graphics/SVG/1.1/DTD/svg11.dtd"><svg class="icon" width="200px" height="200.00px" viewBox="0 0 1024 1024" version="1.1" xmlns="http://www.w3.org/2000/svg"><path fill="#ffffff" d="M897.664 235.52 705.792 235.52c-35.712-45.44-56.064-110.08-125.056-110.08L443.904 125.44l0 0c-68.864 0.128-89.216 64.64-124.928 110.08L127.104 235.52C86.784 235.52 53.76 268.544 53.76 308.864l0 517.12c0 40.32 33.024 73.344 73.344 73.344l770.56 0c40.32 0 73.344-33.024 73.344-73.344l0-517.12C971.008 268.544 937.984 235.52 897.664 235.52L897.664 235.52zM942.464 825.984c0 24.704-20.096 44.672-44.672 44.672l-770.56 0c-24.704 0-44.672-20.096-44.672-44.672l0-517.12c0-24.704 20.096-44.672 44.672-44.672l191.872 0c8.832 0 17.152-3.968 22.528-10.88 9.216-11.776 17.28-24.32 25.088-36.352 25.728-40.064 41.984-62.72 77.312-62.72l136.832 0c35.328 0 51.712 22.656 77.44 62.72 7.808 12.16 15.872 24.704 25.088 36.352 5.376 6.912 13.696 10.88 22.528 10.88l191.872 0c24.704 0 44.672 20.096 44.672 44.672L942.464 825.984 942.464 825.984zM942.464 825.984M331.52 569.728c0-100.352 83.456-186.368 186.368-186.368 51.2 0 97.536 21.376 131.2 55.04l-34.944 34.944 111.488 10.112-10.112-111.488-35.072 35.072c-41.472-41.472-99.072-66.688-162.56-66.688-126.592 0-229.376 100.352-229.376 229.376 0 11.904 9.6 21.504 21.504 21.504C321.792 591.232 331.52 581.632 331.52 569.728L331.52 569.728zM331.52 569.728M725.632 548.224c-11.904 0-21.504 9.6-21.504 21.504 0 100.352-83.456 186.368-186.368 186.368-51.2 0-97.536-21.376-131.2-55.04l34.944-34.944-111.488-10.112 10.112 111.488 35.072-35.072c41.472 41.472 99.072 66.688 162.56 66.688 126.592 0 229.376-100.352 229.376-229.376l0 0C747.136 557.952 737.536 548.224 725.632 548.224L725.632 548.224zM725.632 548.224" /></svg>