<?xml version="1.0" standalone="no"?><!DOCTYPE svg PUBLIC "-//W3C//DTD SVG 1.1//EN" "http://www.w3.org/Graphics/SVG/1.1/DTD/svg11.dtd"><svg class="icon" width="200px" height="200.00px" viewBox="0 0 1024 1024" version="1.1" xmlns="http://www.w3.org/2000/svg"><path fill="#ffffff" d="M839.816141 880.822067c-10.720156 0-21.439288-4.090155-29.617551-12.268418l-654.649907-654.647861c-16.35755-16.35755-16.35755-42.8796 0-59.237149 16.358573-16.356526 42.8796-16.356526 59.236126 0l654.648884 654.649907c16.35755 16.356526 16.35755 42.878576 0 59.236126C861.255429 876.732935 850.535273 880.822067 839.816141 880.822067L839.816141 880.822067zM185.167257 880.822067c-10.719132 0-21.439288-4.090155-29.617551-12.268418-16.35755-16.35755-16.35755-42.878576 0-59.236126l654.647861-654.648884c16.358573-16.356526 42.877553-16.356526 59.236126 0 16.35755 16.35755 16.35755 42.8796 0 59.237149L214.784808 868.554672C206.606545 876.732935 195.886389 880.822067 185.167257 880.822067L185.167257 880.822067z" /></svg>