<?xml version="1.0" standalone="no"?><!DOCTYPE svg PUBLIC "-//W3C//DTD SVG 1.1//EN" "http://www.w3.org/Graphics/SVG/1.1/DTD/svg11.dtd"><svg class="icon" width="200px" height="200.00px" viewBox="0 0 1024 1024" version="1.1" xmlns="http://www.w3.org/2000/svg"><path fill="#ffffff" d="M943.184905 306.685891 943.184905 306.685891 450.316637 807.668976l0 0c-11.644201 11.830443-27.723412 19.152199-45.484937 19.152199-17.761526 0-33.841759-7.320733-45.485961-19.152199l0 0L80.813049 524.485359l0 0c-11.638061-11.771091-18.84009-28.116361-18.84009-46.169529 0-36.106336 28.797883-65.325821 64.262606-65.325821 17.760502 0 33.846876 7.320733 45.484937 19.152199l0 0 233.113245 236.895385 447.445752-454.81458 0 0c11.644201-11.771091 27.723412-19.0908 45.485961-19.0908 35.45756 0 64.262606 29.272697 64.262606 65.320705C962.031135 278.505062 954.829106 294.855448 943.184905 306.685891L943.184905 306.685891 943.184905 306.685891zM943.184905 306.685891" /></svg>